<svg height="512" viewBox="0 0 64 64" width="512" xmlns="http://www.w3.org/2000/svg"><g id="Laptop"><path d="m7 15h50a2 2 0 0 1 2 2v36a0 0 0 0 1 0 0h-54a0 0 0 0 1 0 0v-36a2 2 0 0 1 2-2z" fill="#ff7956"/><path d="m59 17v36h-4v-36a2.006 2.006 0 0 0 -2-2h4a2.006 2.006 0 0 1 2 2z" fill="#ff5023"/><path d="m9 19h46v34h-46z" fill="#46f8ff"/><path d="m51 19h4v34h-4z" fill="#00d7df"/><path d="m61 53v4a4 4 0 0 1 -4 4h-50a4 4 0 0 1 -4-4v-4h18v2a2.006 2.006 0 0 0 2 2h18a2.006 2.006 0 0 0 2-2v-2z" fill="#898890"/><path d="m61 53v4a4 4 0 0 1 -4 4h-4a4 4 0 0 0 4-4v-4z" fill="#57565c"/><path d="m56 11h-26l13-8z" fill="#a78966"/><path d="m56 11h-4l-11-6.77 2-1.23z" fill="#806749"/><path d="m55 25v4h-24v-4h2 4 4 4 4 4z" fill="#a78966"/><path d="m32 11h22v4h-22z" fill="#fee9ab"/><path d="m50 11h4v4h-4z" fill="#ffd422"/><path d="m51 25h4v4h-4z" fill="#806749"/><path d="m49 15h4v10h-4z" fill="#787680"/><path d="m51 15h2v10h-2z" fill="#57565c"/><path d="m51.02 44.78-4.24 4.24-4.95-6.36-2.12 2.12-.71-7.78 7.78.71-2.12 2.12z" fill="#ff3051"/><path d="m44.78 39.71-5.58-.51-.2-2.2 7.78.71z" fill="#cd2a00"/><path d="m51.02 44.78-2 2-6.36-4.95 2-2z" fill="#cd2a00"/><path d="m45 15h4v10h-4z" fill="#c6c5ca"/><path d="m41 15h4v10h-4z" fill="#787680"/><path d="m43 53v2a2.006 2.006 0 0 1 -2 2h-18a2.006 2.006 0 0 1 -2-2v-2z" fill="#c6c5ca"/><path d="m37 15h4v10h-4z" fill="#c6c5ca"/><path d="m37 15v10h-4v-6-4z" fill="#787680"/><path d="m31 45v4h-4v-4h2z" fill="#ffde55"/><path d="m29 41v4h-2-2v-4z" fill="#ffcd00"/><path d="m27 45v4h-4v-4h2z" fill="#ffcd00"/><path d="m25 41v4h-2-2v-4z" fill="#ffde55"/><path d="m23 45v4h-4v-4h2z" fill="#ffde55"/><path d="m21.05 23h-.05a8 8 0 0 0 -.05 16h.05a8 8 0 0 0 .05-16z" fill="#ffd422"/><path d="m29 31a8 8 0 0 1 -8 8h-.05a8.163 8.163 0 0 1 -1.93-.25 8.005 8.005 0 0 0 -.04-15.5 8.4 8.4 0 0 1 2.02-.25h.05a8 8 0 0 1 7.95 8z" fill="#ebbf00"/><path d="m21 41v4h-2-2v-4z" fill="#ffcd00"/><path d="m19 45v4h-4v-4h2z" fill="#ffcd00"/><path d="m17 41v4h-2-2v-4z" fill="#ffde55"/><path d="m43 15h2v10h-2z" fill="#57565c"/><path d="m35 15h2v10h-2z" fill="#57565c"/><path d="m61 52h-1v-35a3.009 3.009 0 0 0 -3-3h-2v-2h1a1 1 0 0 0 .96-.73.984.984 0 0 0 -.44-1.12l-13-8a.98.98 0 0 0 -.52-.15h-22a1 1 0 0 0 -1 1v11h-13a3.009 3.009 0 0 0 -3 3v35h-1a1 1 0 0 0 -1 1v4a5 5 0 0 0 5 5h50a5 5 0 0 0 5-5v-4a1 1 0 0 0 -1-1zm-7-36h3a1 1 0 0 1 1 1v35h-2v-27a1 1 0 0 0 -1-1h-1zm0 10v2h-22v-2zm-20-2v-8h2v8zm4 0v-8h2v8zm4 0v-8h2v8zm4 0v-8h2v8zm4 0v-8h2v8zm3-10h-20v-2h20zm-.53-4h-18.94l9.47-5.83zm-30.47-6h17.47l-9.99 6.15a.984.984 0 0 0 -.44 1.12 1 1 0 0 0 .96.73h1v2h-9zm0 12h10v2h-10zm0 4h10v4h-1a1 1 0 0 0 -1 1v4a1 1 0 0 0 1 1h23v22h-44v-32h10v2.06a9 9 0 1 0 2 0zm20 34v1a1 1 0 0 1 -1 1h-18a1 1 0 0 1 -1-1v-1zm-21-30a7 7 0 1 1 -7 7 7.008 7.008 0 0 1 7-7zm-15-7a1 1 0 0 1 1-1h13v2h-11a1 1 0 0 0 -1 1v33h-2zm54 40a3.009 3.009 0 0 1 -3 3h-50a3.009 3.009 0 0 1 -3-3v-3h16v1a3.009 3.009 0 0 0 3 3h18a3.009 3.009 0 0 0 3-3v-1h16z"/><path d="m24 33a3.01 3.01 0 0 1 -2 2.82v1.18h-2v-1.18a3.01 3.01 0 0 1 -2-2.82h2a1 1 0 1 0 1-1 3 3 0 0 1 -1-5.82v-1.18h2v1.18a3.01 3.01 0 0 1 2 2.82h-2a1 1 0 1 0 -1 1 3.009 3.009 0 0 1 3 3z"/><path d="m31 44h-1v-3a1 1 0 0 0 -1-1h-16a1 1 0 0 0 -1 1v4a1 1 0 0 0 1 1h1v3a1 1 0 0 0 1 1h16a1 1 0 0 0 1-1v-4a1 1 0 0 0 -1-1zm-17 0v-2h2v2zm4 4h-2v-2h2zm0-6h2v2h-2zm4 6h-2v-2h2zm0-6h2v2h-2zm4 6h-2v-2h2zm0-6h2v2h-2zm4 6h-2v-2h2z"/><path d="m51.63 43.99-5.46-4.26 1.32-1.32a1 1 0 0 0 -.62-1.7l-7.78-.71a1.037 1.037 0 0 0 -.8.29 1.024 1.024 0 0 0 -.29.8l.71 7.78a1.01 1.01 0 0 0 .66.85 1 1 0 0 0 1.04-.23l1.32-1.32 4.26 5.46a1.008 1.008 0 0 0 .73.39h.06a1.007 1.007 0 0 0 .71-.29l4.24-4.24a1.022 1.022 0 0 0 .29-.77 1.008 1.008 0 0 0 -.39-.73zm-4.76 3.52-4.25-5.47a1.032 1.032 0 0 0 -.73-.38h-.06a.99.99 0 0 0 -.71.29l-.61.61-.41-4.46 4.46.41-.61.61a.994.994 0 0 0 -.29.77 1.032 1.032 0 0 0 .38.73l5.47 4.25z"/></g></svg>